<svg width="190" height="109" viewBox="0 0 190 109" fill="none" xmlns="http://www.w3.org/2000/svg">
<mask id="path-1-outside-1_30_549" maskUnits="userSpaceOnUse" x="0" y="0" width="190" height="109" fill="black">
<rect fill="white" width="190" height="109"/>
<path d="M32.5861 81.6499C34.0892 81.9997 36.0826 82.4315 38.5061 82.8523C40.9297 83.284 43.7836 83.7157 46.9696 84.2185C53.2819 85.2513 60.8413 86.1803 68.9562 86.7705C73.0082 87.0546 77.1964 87.246 81.4173 87.3553C85.6381 87.4482 89.8917 87.4317 94.0744 87.3334C98.2626 87.2241 102.38 86.9999 106.339 86.7048C110.293 86.3988 114.084 85.9945 117.619 85.5573C125.777 84.4753 133.898 83.0053 141.784 80.7811C145.727 79.6718 149.61 78.3929 153.379 76.8628C157.142 75.3327 160.802 73.5621 164.195 71.4309C167.648 69.2286 171.052 66.917 174.167 64.3595C177.261 61.7965 180.147 58.9767 182.053 55.7142C182.985 54.0803 183.644 52.348 183.949 50.5446C184.248 48.7576 184.248 46.8013 183.856 45.1564C183.061 41.7519 180.387 38.8938 177.152 36.8117C173.889 34.7133 170.142 33.2049 166.292 32.0682L160.339 30.4452C159.844 30.314 159.348 30.172 158.847 30.0463L157.344 29.6966L154.337 28.9971C146.315 27.1828 138.189 25.8658 130.009 25.1389C113.643 23.6689 97.1025 24.8001 81.0088 28.1281C78.5035 28.6856 75.5408 29.2867 72.5671 30.0955C71.0803 30.489 69.5608 30.8386 68.0957 31.2485C66.6307 31.6638 65.1983 32.0629 63.8476 32.4454C63.1668 32.6257 62.5078 32.806 61.8761 32.9755C61.2443 33.1558 60.6398 33.3361 60.0679 33.5C58.9242 33.8279 57.8949 34.1066 57.0398 34.3088C55.3188 34.7132 54.2676 34.8334 54.2459 34.5164C54.2241 34.1831 54.8885 33.653 56.1684 32.9426C56.8111 32.5874 57.6062 32.194 58.5484 31.7568C59.4961 31.336 60.569 30.8114 61.8107 30.3633C66.745 28.4561 73.945 26.1445 82.8987 24.3685C93.7367 22.2591 104.793 21.1551 115.854 21.1551C117.237 21.1114 118.621 21.1989 119.999 21.2262L124.143 21.3519L128.277 21.647C129.655 21.7563 131.038 21.8109 132.405 21.9967L136.523 22.4613C137.209 22.5432 137.895 22.6033 138.581 22.7071L140.629 23.0241L144.725 23.6525C146.092 23.8657 147.437 24.1662 148.793 24.4176C150.149 24.6853 151.505 24.9312 152.856 25.2154L156.886 26.1554C159.582 26.7402 162.234 27.4998 164.892 28.2157C167.539 28.8933 170.257 29.7402 172.844 30.8277C175.442 31.9097 177.98 33.2213 180.316 34.9208C182.625 36.6422 184.738 38.8063 186.116 41.5168C186.726 42.8994 187.266 44.353 187.407 45.8722C187.445 46.2493 187.527 46.6318 187.527 46.998L187.549 48.1019C187.549 48.2877 187.56 48.468 187.554 48.6538L187.511 49.2058L187.423 50.3096C187.064 53.2606 185.909 56.0804 184.341 58.5068C182.767 60.9495 180.817 63.0425 178.764 64.9497C175.752 67.7422 172.484 70.1522 169.151 72.4146L166.63 74.0759C165.78 74.6278 164.892 75.1469 164.021 75.6825L161.341 77.1525C160.432 77.6006 159.522 78.0596 158.607 78.4968C151.238 81.9341 143.478 84.2567 135.651 86.071C131.735 86.9781 127.787 87.7213 123.822 88.3443C119.862 88.9727 115.881 89.4864 111.895 89.8799C107.908 90.2843 103.91 90.5849 99.9128 90.7762C95.9153 90.9839 91.9122 91.0821 87.9092 91.0876C79.9032 91.1204 71.9027 90.7598 63.9239 90.0658C59.9372 89.6942 55.956 89.257 51.9911 88.7105C48.0099 88.1367 44.1104 87.5246 40.1564 86.8962C36.2078 86.2513 32.2266 85.4971 28.2998 84.3714C24.384 83.2238 20.5062 81.6992 16.9607 79.5078C15.1743 78.4313 13.5023 77.1798 11.9338 75.8136C11.1332 75.1469 10.4034 74.3983 9.65726 73.6715C8.95469 72.9009 8.23034 72.1413 7.58768 71.3161C4.94624 68.0755 2.89844 64.2776 1.7983 60.1571C0.839753 56.452 0.725381 52.4791 1.55866 48.7357C1.98347 46.8668 2.56077 45.0361 3.35048 43.3093C4.14564 41.5879 5.06606 39.9266 6.13897 38.3746C7.22278 36.8335 8.39917 35.3635 9.70083 34.0137C11.0079 32.6694 12.3913 31.4071 13.8781 30.265C15.3704 29.1283 16.9171 28.0954 18.5238 27.1663C20.1304 26.2483 21.7807 25.4068 23.4636 24.6581C25.1519 23.9204 26.862 23.2536 28.5885 22.6525C30.3204 22.0623 32.0632 21.5322 33.8169 21.0458C37.3243 20.1004 40.848 19.3026 44.3827 18.6359L49.6819 17.6249C51.4519 17.3189 53.2329 17.0511 55.0083 16.7614L57.6716 16.3406L60.3457 15.9909C62.132 15.7669 63.9075 15.51 65.6994 15.3133C94.2868 12.0891 123.397 13.7012 151.467 19.9693C153.112 20.3518 154.768 20.6798 156.402 21.1115L161.309 22.3683C164.587 23.1989 167.937 24.2756 171.101 25.7511C174.271 27.2265 177.31 29.1282 179.94 31.5655L180.441 32.0136C180.605 32.1667 180.752 32.336 180.91 32.5L181.83 33.4836C182.151 33.8006 182.413 34.1667 182.696 34.5164L183.529 35.5767C184.036 36.3199 184.531 37.074 185 37.8445L185.637 39.0358C185.844 39.4347 186.073 39.8227 186.236 40.2435C186.971 41.8829 187.57 43.577 188.001 45.3093C188.447 47.0526 188.725 48.7576 188.927 50.5719C189.232 54.277 188.556 57.8838 187.456 61.2392C186.345 64.6054 184.798 67.764 183.001 70.7423C181.198 73.7206 179.134 76.5241 176.841 79.1308C174.543 81.7375 172.027 84.1638 169.184 86.2732C167.773 87.2733 166.374 88.2131 164.963 89.1804L163.906 89.9018L163.378 90.2624L162.834 90.5958L160.65 91.9292C159.19 92.8145 157.752 93.7325 156.227 94.5085C154.713 95.3009 153.232 96.148 151.696 96.9022L147.045 99.0607C145.482 99.7493 143.87 100.334 142.285 100.979C135.885 103.389 129.252 105.181 122.52 106.351L117.455 107.11L112.363 107.608C111.513 107.706 110.664 107.739 109.814 107.777L107.26 107.897C106.41 107.925 105.555 108.001 104.706 107.99H102.151C99.2102 108.045 96.2802 107.859 93.3501 107.739C91.885 107.662 90.4309 107.509 88.9713 107.394L86.7819 107.209C86.0521 107.149 85.3277 107.039 84.6033 106.963L80.2463 106.438C78.7976 106.241 77.3598 106.001 75.9111 105.782C73.0355 105.367 70.0999 104.826 67.2352 104.143C61.4839 102.782 55.8471 100.908 50.4498 98.4486C45.058 95.9895 39.8895 92.9401 35.2493 89.153C30.6145 85.3769 26.508 80.8303 23.4962 75.5568C20.4844 70.2997 18.6055 64.3595 18.2025 58.2826C17.7831 52.2113 18.8233 46.1018 20.931 40.4786C23.0387 34.8389 26.1649 29.6474 29.9446 25.0406C33.4956 20.6961 37.9996 16.3844 43.2063 12.8049C45.8041 11.0125 48.5708 9.38947 51.441 8.01781C52.1545 7.67353 52.8897 7.36215 53.6086 7.03426C54.3384 6.72277 55.0791 6.44401 55.8089 6.14891C57.2849 5.62429 58.7554 5.14887 60.2095 4.66251C61.424 4.30184 62.7529 3.97397 64.1526 3.59144C64.8497 3.38924 65.5795 3.24161 66.3202 3.09406C67.0664 2.94105 67.8234 2.78264 68.5968 2.62417C69.3647 2.44929 70.1599 2.33453 70.9604 2.21431C71.7611 2.09409 72.5725 1.9739 73.3895 1.84821C74.2064 1.70613 75.0343 1.65694 75.8675 1.56404C76.7008 1.48206 77.5341 1.39999 78.3674 1.31802C85.0499 0.771539 91.7325 1.00651 96.6668 1.44369C100.926 1.83169 105.326 2.36179 109.455 2.96291C110.048 3.04488 110.631 3.12149 111.197 3.20346C111.764 3.29636 112.314 3.38379 112.848 3.46576C113.921 3.64063 114.939 3.81 115.908 3.96848C117.831 4.32915 119.547 4.64614 121.044 4.9631C122.542 5.28552 123.833 5.58054 124.917 5.84285C126 6.12155 126.877 6.36752 127.558 6.58065C130.287 7.44408 129.851 7.82664 126.594 7.83757C125.162 7.85943 126.654 8.55345 122.117 7.84304C121.932 7.81571 121.556 7.75549 121.382 7.72816C114.487 6.77183 107.548 5.70076 100.528 5.01767C93.5135 4.32364 86.4006 3.98485 79.315 4.49854C78.2312 4.58051 77.1474 4.71171 76.0636 4.81554L74.4406 4.98498L72.8285 5.23087C71.7556 5.40574 70.6718 5.53141 69.6098 5.75546L66.4237 6.42215C65.89 6.52051 65.3671 6.66257 64.8443 6.81012L63.2758 7.23092L61.7072 7.65172C61.1844 7.7938 60.6779 7.99049 60.1605 8.15443L57.0834 9.19281C56.0867 9.59174 55.0737 9.96335 54.0988 10.4224C46.229 13.9198 39.127 19.2097 33.4738 25.7346C27.8423 32.2486 23.6052 40.085 22.0475 48.5008C21.6608 50.5992 21.4212 52.7251 21.4103 54.8509L21.394 55.6487C21.394 55.9165 21.4103 56.1788 21.4212 56.4466C21.4484 56.9766 21.4484 57.5121 21.492 58.0368C21.5955 59.0915 21.6826 60.1516 21.8787 61.2009C22.0148 62.2556 22.298 63.2829 22.5159 64.3212C22.81 65.3431 23.0823 66.376 23.4527 67.3706C24.1607 69.3762 25.0103 71.338 26.056 73.1905C27.0962 75.0485 28.2672 76.841 29.5743 78.5296C30.8977 80.2073 32.3355 81.803 33.8659 83.3003C36.954 86.2786 40.4232 88.8853 44.1212 91.1204C51.5282 95.5906 59.7738 98.6836 68.2428 100.645C70.3614 101.143 72.4909 101.547 74.653 101.886C76.8261 102.203 78.9883 102.569 81.1668 102.848L84.4345 103.236C85.5238 103.356 86.613 103.52 87.7023 103.591L90.9755 103.859C92.0647 103.952 93.1594 104.05 94.2541 104.077C102.99 104.547 111.764 104.258 120.374 102.924L122.357 102.629C123.021 102.536 123.669 102.372 124.323 102.247L128.25 101.438C129.546 101.116 130.831 100.755 132.127 100.416L134.066 99.9023L135.973 99.2793C137.242 98.8585 138.516 98.4542 139.779 98.0225L143.51 96.5524C144.131 96.301 144.757 96.077 145.367 95.8037L147.186 94.9622C148.395 94.3938 149.621 93.8528 150.825 93.268L154.37 91.3772C154.958 91.0603 155.552 90.7543 156.14 90.4264L157.856 89.3827L161.292 87.3006C162.409 86.5628 163.509 85.7924 164.62 85.0437C165.72 84.2841 166.869 83.5462 167.871 82.7538C168.901 81.9614 169.886 81.0926 170.845 80.1964C172.762 78.3985 174.538 76.4312 176.171 74.36C179.428 70.2068 182.179 65.6055 183.916 60.6982C184.777 58.2499 185.354 55.7198 185.474 53.2115C185.506 52.583 185.495 51.9599 185.474 51.3424L185.397 50.4189C185.359 50.1074 185.299 49.7795 185.256 49.4626C185.147 48.8232 185.082 48.1784 184.934 47.5499L184.493 45.6701C183.802 43.2 182.789 40.8447 181.416 38.7134C180.049 36.5822 178.334 34.6859 176.368 33.0683C174.396 31.4453 172.163 30.1338 169.821 29.0244C167.474 27.926 165.012 27.0133 162.474 26.3248C161.091 25.9204 159.631 25.5925 158.21 25.2263C156.777 24.8766 155.356 24.4941 153.918 24.1717C152.475 23.8602 151.037 23.5432 149.594 23.2317L147.431 22.7617L145.253 22.3464C143.799 22.0732 142.345 21.7946 140.891 21.5213C139.436 21.2317 137.966 21.0349 136.506 20.7835C135.041 20.5486 133.576 20.2862 132.106 20.0676C130.63 19.86 129.154 19.6524 127.672 19.4447L127.874 19.4721C115.5 17.86 103.012 17.2806 90.5452 17.4664C87.5988 17.4609 84.6469 17.6467 81.6842 17.7506C80.2028 17.7888 78.7268 17.9309 77.2454 18.0238C75.7641 18.1276 74.2827 18.237 72.8013 18.3408C66.8812 18.9091 60.9393 19.5595 55.041 20.5322L50.6132 21.2481L46.2072 22.0896C43.2607 22.6306 40.3361 23.2537 37.4605 23.9641C34.5794 24.6745 31.7419 25.4887 28.9915 26.4832C26.2357 27.4669 23.5725 28.6418 21.0563 30.0408C18.5238 31.4289 16.1928 33.0738 14.096 34.97C11.9828 36.8554 10.1583 39.0413 8.64425 41.3857C7.1193 43.73 6.01915 46.304 5.34382 48.9435C4.68482 51.5939 4.57589 54.3262 4.95713 56.993C5.32748 59.6653 6.28602 62.2556 7.57679 64.6492C8.87844 67.0482 10.5287 69.2669 12.4512 71.2233C14.3683 73.1797 16.5305 74.8955 18.8397 76.3327C21.1543 77.7645 23.6324 78.9286 26.2139 79.8467C27.8151 80.4423 30.0808 81.0543 32.5861 81.6499Z"/>
</mask>
<path d="M32.5861 81.6499C34.0892 81.9997 36.0826 82.4315 38.5061 82.8523C40.9297 83.284 43.7836 83.7157 46.9696 84.2185C53.2819 85.2513 60.8413 86.1803 68.9562 86.7705C73.0082 87.0546 77.1964 87.246 81.4173 87.3553C85.6381 87.4482 89.8917 87.4317 94.0744 87.3334C98.2626 87.2241 102.38 86.9999 106.339 86.7048C110.293 86.3988 114.084 85.9945 117.619 85.5573C125.777 84.4753 133.898 83.0053 141.784 80.7811C145.727 79.6718 149.61 78.3929 153.379 76.8628C157.142 75.3327 160.802 73.5621 164.195 71.4309C167.648 69.2286 171.052 66.917 174.167 64.3595C177.261 61.7965 180.147 58.9767 182.053 55.7142C182.985 54.0803 183.644 52.348 183.949 50.5446C184.248 48.7576 184.248 46.8013 183.856 45.1564C183.061 41.7519 180.387 38.8938 177.152 36.8117C173.889 34.7133 170.142 33.2049 166.292 32.0682L160.339 30.4452C159.844 30.314 159.348 30.172 158.847 30.0463L157.344 29.6966L154.337 28.9971C146.315 27.1828 138.189 25.8658 130.009 25.1389C113.643 23.6689 97.1025 24.8001 81.0088 28.1281C78.5035 28.6856 75.5408 29.2867 72.5671 30.0955C71.0803 30.489 69.5608 30.8386 68.0957 31.2485C66.6307 31.6638 65.1983 32.0629 63.8476 32.4454C63.1668 32.6257 62.5078 32.806 61.8761 32.9755C61.2443 33.1558 60.6398 33.3361 60.0679 33.5C58.9242 33.8279 57.8949 34.1066 57.0398 34.3088C55.3188 34.7132 54.2676 34.8334 54.2459 34.5164C54.2241 34.1831 54.8885 33.653 56.1684 32.9426C56.8111 32.5874 57.6062 32.194 58.5484 31.7568C59.4961 31.336 60.569 30.8114 61.8107 30.3633C66.745 28.4561 73.945 26.1445 82.8987 24.3685C93.7367 22.2591 104.793 21.1551 115.854 21.1551C117.237 21.1114 118.621 21.1989 119.999 21.2262L124.143 21.3519L128.277 21.647C129.655 21.7563 131.038 21.8109 132.405 21.9967L136.523 22.4613C137.209 22.5432 137.895 22.6033 138.581 22.7071L140.629 23.0241L144.725 23.6525C146.092 23.8657 147.437 24.1662 148.793 24.4176C150.149 24.6853 151.505 24.9312 152.856 25.2154L156.886 26.1554C159.582 26.7402 162.234 27.4998 164.892 28.2157C167.539 28.8933 170.257 29.7402 172.844 30.8277C175.442 31.9097 177.98 33.2213 180.316 34.9208C182.625 36.6422 184.738 38.8063 186.116 41.5168C186.726 42.8994 187.266 44.353 187.407 45.8722C187.445 46.2493 187.527 46.6318 187.527 46.998L187.549 48.1019C187.549 48.2877 187.56 48.468 187.554 48.6538L187.511 49.2058L187.423 50.3096C187.064 53.2606 185.909 56.0804 184.341 58.5068C182.767 60.9495 180.817 63.0425 178.764 64.9497C175.752 67.7422 172.484 70.1522 169.151 72.4146L166.63 74.0759C165.78 74.6278 164.892 75.1469 164.021 75.6825L161.341 77.1525C160.432 77.6006 159.522 78.0596 158.607 78.4968C151.238 81.9341 143.478 84.2567 135.651 86.071C131.735 86.9781 127.787 87.7213 123.822 88.3443C119.862 88.9727 115.881 89.4864 111.895 89.8799C107.908 90.2843 103.91 90.5849 99.9128 90.7762C95.9153 90.9839 91.9122 91.0821 87.9092 91.0876C79.9032 91.1204 71.9027 90.7598 63.9239 90.0658C59.9372 89.6942 55.956 89.257 51.9911 88.7105C48.0099 88.1367 44.1104 87.5246 40.1564 86.8962C36.2078 86.2513 32.2266 85.4971 28.2998 84.3714C24.384 83.2238 20.5062 81.6992 16.9607 79.5078C15.1743 78.4313 13.5023 77.1798 11.9338 75.8136C11.1332 75.1469 10.4034 74.3983 9.65726 73.6715C8.95469 72.9009 8.23034 72.1413 7.58768 71.3161C4.94624 68.0755 2.89844 64.2776 1.7983 60.1571C0.839753 56.452 0.725381 52.4791 1.55866 48.7357C1.98347 46.8668 2.56077 45.0361 3.35048 43.3093C4.14564 41.5879 5.06606 39.9266 6.13897 38.3746C7.22278 36.8335 8.39917 35.3635 9.70083 34.0137C11.0079 32.6694 12.3913 31.4071 13.8781 30.265C15.3704 29.1283 16.9171 28.0954 18.5238 27.1663C20.1304 26.2483 21.7807 25.4068 23.4636 24.6581C25.1519 23.9204 26.862 23.2536 28.5885 22.6525C30.3204 22.0623 32.0632 21.5322 33.8169 21.0458C37.3243 20.1004 40.848 19.3026 44.3827 18.6359L49.6819 17.6249C51.4519 17.3189 53.2329 17.0511 55.0083 16.7614L57.6716 16.3406L60.3457 15.9909C62.132 15.7669 63.9075 15.51 65.6994 15.3133C94.2868 12.0891 123.397 13.7012 151.467 19.9693C153.112 20.3518 154.768 20.6798 156.402 21.1115L161.309 22.3683C164.587 23.1989 167.937 24.2756 171.101 25.7511C174.271 27.2265 177.31 29.1282 179.94 31.5655L180.441 32.0136C180.605 32.1667 180.752 32.336 180.91 32.5L181.83 33.4836C182.151 33.8006 182.413 34.1667 182.696 34.5164L183.529 35.5767C184.036 36.3199 184.531 37.074 185 37.8445L185.637 39.0358C185.844 39.4347 186.073 39.8227 186.236 40.2435C186.971 41.8829 187.57 43.577 188.001 45.3093C188.447 47.0526 188.725 48.7576 188.927 50.5719C189.232 54.277 188.556 57.8838 187.456 61.2392C186.345 64.6054 184.798 67.764 183.001 70.7423C181.198 73.7206 179.134 76.5241 176.841 79.1308C174.543 81.7375 172.027 84.1638 169.184 86.2732C167.773 87.2733 166.374 88.2131 164.963 89.1804L163.906 89.9018L163.378 90.2624L162.834 90.5958L160.65 91.9292C159.19 92.8145 157.752 93.7325 156.227 94.5085C154.713 95.3009 153.232 96.148 151.696 96.9022L147.045 99.0607C145.482 99.7493 143.87 100.334 142.285 100.979C135.885 103.389 129.252 105.181 122.52 106.351L117.455 107.11L112.363 107.608C111.513 107.706 110.664 107.739 109.814 107.777L107.26 107.897C106.41 107.925 105.555 108.001 104.706 107.99H102.151C99.2102 108.045 96.2802 107.859 93.3501 107.739C91.885 107.662 90.4309 107.509 88.9713 107.394L86.7819 107.209C86.0521 107.149 85.3277 107.039 84.6033 106.963L80.2463 106.438C78.7976 106.241 77.3598 106.001 75.9111 105.782C73.0355 105.367 70.0999 104.826 67.2352 104.143C61.4839 102.782 55.8471 100.908 50.4498 98.4486C45.058 95.9895 39.8895 92.9401 35.2493 89.153C30.6145 85.3769 26.508 80.8303 23.4962 75.5568C20.4844 70.2997 18.6055 64.3595 18.2025 58.2826C17.7831 52.2113 18.8233 46.1018 20.931 40.4786C23.0387 34.8389 26.1649 29.6474 29.9446 25.0406C33.4956 20.6961 37.9996 16.3844 43.2063 12.8049C45.8041 11.0125 48.5708 9.38947 51.441 8.01781C52.1545 7.67353 52.8897 7.36215 53.6086 7.03426C54.3384 6.72277 55.0791 6.44401 55.8089 6.14891C57.2849 5.62429 58.7554 5.14887 60.2095 4.66251C61.424 4.30184 62.7529 3.97397 64.1526 3.59144C64.8497 3.38924 65.5795 3.24161 66.3202 3.09406C67.0664 2.94105 67.8234 2.78264 68.5968 2.62417C69.3647 2.44929 70.1599 2.33453 70.9604 2.21431C71.7611 2.09409 72.5725 1.9739 73.3895 1.84821C74.2064 1.70613 75.0343 1.65694 75.8675 1.56404C76.7008 1.48206 77.5341 1.39999 78.3674 1.31802C85.0499 0.771539 91.7325 1.00651 96.6668 1.44369C100.926 1.83169 105.326 2.36179 109.455 2.96291C110.048 3.04488 110.631 3.12149 111.197 3.20346C111.764 3.29636 112.314 3.38379 112.848 3.46576C113.921 3.64063 114.939 3.81 115.908 3.96848C117.831 4.32915 119.547 4.64614 121.044 4.9631C122.542 5.28552 123.833 5.58054 124.917 5.84285C126 6.12155 126.877 6.36752 127.558 6.58065C130.287 7.44408 129.851 7.82664 126.594 7.83757C125.162 7.85943 126.654 8.55345 122.117 7.84304C121.932 7.81571 121.556 7.75549 121.382 7.72816C114.487 6.77183 107.548 5.70076 100.528 5.01767C93.5135 4.32364 86.4006 3.98485 79.315 4.49854C78.2312 4.58051 77.1474 4.71171 76.0636 4.81554L74.4406 4.98498L72.8285 5.23087C71.7556 5.40574 70.6718 5.53141 69.6098 5.75546L66.4237 6.42215C65.89 6.52051 65.3671 6.66257 64.8443 6.81012L63.2758 7.23092L61.7072 7.65172C61.1844 7.7938 60.6779 7.99049 60.1605 8.15443L57.0834 9.19281C56.0867 9.59174 55.0737 9.96335 54.0988 10.4224C46.229 13.9198 39.127 19.2097 33.4738 25.7346C27.8423 32.2486 23.6052 40.085 22.0475 48.5008C21.6608 50.5992 21.4212 52.7251 21.4103 54.8509L21.394 55.6487C21.394 55.9165 21.4103 56.1788 21.4212 56.4466C21.4484 56.9766 21.4484 57.5121 21.492 58.0368C21.5955 59.0915 21.6826 60.1516 21.8787 61.2009C22.0148 62.2556 22.298 63.2829 22.5159 64.3212C22.81 65.3431 23.0823 66.376 23.4527 67.3706C24.1607 69.3762 25.0103 71.338 26.056 73.1905C27.0962 75.0485 28.2672 76.841 29.5743 78.5296C30.8977 80.2073 32.3355 81.803 33.8659 83.3003C36.954 86.2786 40.4232 88.8853 44.1212 91.1204C51.5282 95.5906 59.7738 98.6836 68.2428 100.645C70.3614 101.143 72.4909 101.547 74.653 101.886C76.8261 102.203 78.9883 102.569 81.1668 102.848L84.4345 103.236C85.5238 103.356 86.613 103.52 87.7023 103.591L90.9755 103.859C92.0647 103.952 93.1594 104.05 94.2541 104.077C102.99 104.547 111.764 104.258 120.374 102.924L122.357 102.629C123.021 102.536 123.669 102.372 124.323 102.247L128.25 101.438C129.546 101.116 130.831 100.755 132.127 100.416L134.066 99.9023L135.973 99.2793C137.242 98.8585 138.516 98.4542 139.779 98.0225L143.51 96.5524C144.131 96.301 144.757 96.077 145.367 95.8037L147.186 94.9622C148.395 94.3938 149.621 93.8528 150.825 93.268L154.37 91.3772C154.958 91.0603 155.552 90.7543 156.14 90.4264L157.856 89.3827L161.292 87.3006C162.409 86.5628 163.509 85.7924 164.62 85.0437C165.72 84.2841 166.869 83.5462 167.871 82.7538C168.901 81.9614 169.886 81.0926 170.845 80.1964C172.762 78.3985 174.538 76.4312 176.171 74.36C179.428 70.2068 182.179 65.6055 183.916 60.6982C184.777 58.2499 185.354 55.7198 185.474 53.2115C185.506 52.583 185.495 51.9599 185.474 51.3424L185.397 50.4189C185.359 50.1074 185.299 49.7795 185.256 49.4626C185.147 48.8232 185.082 48.1784 184.934 47.5499L184.493 45.6701C183.802 43.2 182.789 40.8447 181.416 38.7134C180.049 36.5822 178.334 34.6859 176.368 33.0683C174.396 31.4453 172.163 30.1338 169.821 29.0244C167.474 27.926 165.012 27.0133 162.474 26.3248C161.091 25.9204 159.631 25.5925 158.21 25.2263C156.777 24.8766 155.356 24.4941 153.918 24.1717C152.475 23.8602 151.037 23.5432 149.594 23.2317L147.431 22.7617L145.253 22.3464C143.799 22.0732 142.345 21.7946 140.891 21.5213C139.436 21.2317 137.966 21.0349 136.506 20.7835C135.041 20.5486 133.576 20.2862 132.106 20.0676C130.63 19.86 129.154 19.6524 127.672 19.4447L127.874 19.4721C115.5 17.86 103.012 17.2806 90.5452 17.4664C87.5988 17.4609 84.6469 17.6467 81.6842 17.7506C80.2028 17.7888 78.7268 17.9309 77.2454 18.0238C75.7641 18.1276 74.2827 18.237 72.8013 18.3408C66.8812 18.9091 60.9393 19.5595 55.041 20.5322L50.6132 21.2481L46.2072 22.0896C43.2607 22.6306 40.3361 23.2537 37.4605 23.9641C34.5794 24.6745 31.7419 25.4887 28.9915 26.4832C26.2357 27.4669 23.5725 28.6418 21.0563 30.0408C18.5238 31.4289 16.1928 33.0738 14.096 34.97C11.9828 36.8554 10.1583 39.0413 8.64425 41.3857C7.1193 43.73 6.01915 46.304 5.34382 48.9435C4.68482 51.5939 4.57589 54.3262 4.95713 56.993C5.32748 59.6653 6.28602 62.2556 7.57679 64.6492C8.87844 67.0482 10.5287 69.2669 12.4512 71.2233C14.3683 73.1797 16.5305 74.8955 18.8397 76.3327C21.1543 77.7645 23.6324 78.9286 26.2139 79.8467C27.8151 80.4423 30.0808 81.0543 32.5861 81.6499Z" fill="#68B97C"/>
<path d="M32.5861 81.6499C34.0892 81.9997 36.0826 82.4315 38.5061 82.8523C40.9297 83.284 43.7836 83.7157 46.9696 84.2185C53.2819 85.2513 60.8413 86.1803 68.9562 86.7705C73.0082 87.0546 77.1964 87.246 81.4173 87.3553C85.6381 87.4482 89.8917 87.4317 94.0744 87.3334C98.2626 87.2241 102.38 86.9999 106.339 86.7048C110.293 86.3988 114.084 85.9945 117.619 85.5573C125.777 84.4753 133.898 83.0053 141.784 80.7811C145.727 79.6718 149.61 78.3929 153.379 76.8628C157.142 75.3327 160.802 73.5621 164.195 71.4309C167.648 69.2286 171.052 66.917 174.167 64.3595C177.261 61.7965 180.147 58.9767 182.053 55.7142C182.985 54.0803 183.644 52.348 183.949 50.5446C184.248 48.7576 184.248 46.8013 183.856 45.1564C183.061 41.7519 180.387 38.8938 177.152 36.8117C173.889 34.7133 170.142 33.2049 166.292 32.0682L160.339 30.4452C159.844 30.314 159.348 30.172 158.847 30.0463L157.344 29.6966L154.337 28.9971C146.315 27.1828 138.189 25.8658 130.009 25.1389C113.643 23.6689 97.1025 24.8001 81.0088 28.1281C78.5035 28.6856 75.5408 29.2867 72.5671 30.0955C71.0803 30.489 69.5608 30.8386 68.0957 31.2485C66.6307 31.6638 65.1983 32.0629 63.8476 32.4454C63.1668 32.6257 62.5078 32.806 61.8761 32.9755C61.2443 33.1558 60.6398 33.3361 60.0679 33.5C58.9242 33.8279 57.8949 34.1066 57.0398 34.3088C55.3188 34.7132 54.2676 34.8334 54.2459 34.5164C54.2241 34.1831 54.8885 33.653 56.1684 32.9426C56.8111 32.5874 57.6062 32.194 58.5484 31.7568C59.4961 31.336 60.569 30.8114 61.8107 30.3633C66.745 28.4561 73.945 26.1445 82.8987 24.3685C93.7367 22.2591 104.793 21.1551 115.854 21.1551C117.237 21.1114 118.621 21.1989 119.999 21.2262L124.143 21.3519L128.277 21.647C129.655 21.7563 131.038 21.8109 132.405 21.9967L136.523 22.4613C137.209 22.5432 137.895 22.6033 138.581 22.7071L140.629 23.0241L144.725 23.6525C146.092 23.8657 147.437 24.1662 148.793 24.4176C150.149 24.6853 151.505 24.9312 152.856 25.2154L156.886 26.1554C159.582 26.7402 162.234 27.4998 164.892 28.2157C167.539 28.8933 170.257 29.7402 172.844 30.8277C175.442 31.9097 177.98 33.2213 180.316 34.9208C182.625 36.6422 184.738 38.8063 186.116 41.5168C186.726 42.8994 187.266 44.353 187.407 45.8722C187.445 46.2493 187.527 46.6318 187.527 46.998L187.549 48.1019C187.549 48.2877 187.56 48.468 187.554 48.6538L187.511 49.2058L187.423 50.3096C187.064 53.2606 185.909 56.0804 184.341 58.5068C182.767 60.9495 180.817 63.0425 178.764 64.9497C175.752 67.7422 172.484 70.1522 169.151 72.4146L166.63 74.0759C165.78 74.6278 164.892 75.1469 164.021 75.6825L161.341 77.1525C160.432 77.6006 159.522 78.0596 158.607 78.4968C151.238 81.9341 143.478 84.2567 135.651 86.071C131.735 86.9781 127.787 87.7213 123.822 88.3443C119.862 88.9727 115.881 89.4864 111.895 89.8799C107.908 90.2843 103.91 90.5849 99.9128 90.7762C95.9153 90.9839 91.9122 91.0821 87.9092 91.0876C79.9032 91.1204 71.9027 90.7598 63.9239 90.0658C59.9372 89.6942 55.956 89.257 51.9911 88.7105C48.0099 88.1367 44.1104 87.5246 40.1564 86.8962C36.2078 86.2513 32.2266 85.4971 28.2998 84.3714C24.384 83.2238 20.5062 81.6992 16.9607 79.5078C15.1743 78.4313 13.5023 77.1798 11.9338 75.8136C11.1332 75.1469 10.4034 74.3983 9.65726 73.6715C8.95469 72.9009 8.23034 72.1413 7.58768 71.3161C4.94624 68.0755 2.89844 64.2776 1.7983 60.1571C0.839753 56.452 0.725381 52.4791 1.55866 48.7357C1.98347 46.8668 2.56077 45.0361 3.35048 43.3093C4.14564 41.5879 5.06606 39.9266 6.13897 38.3746C7.22278 36.8335 8.39917 35.3635 9.70083 34.0137C11.0079 32.6694 12.3913 31.4071 13.8781 30.265C15.3704 29.1283 16.9171 28.0954 18.5238 27.1663C20.1304 26.2483 21.7807 25.4068 23.4636 24.6581C25.1519 23.9204 26.862 23.2536 28.5885 22.6525C30.3204 22.0623 32.0632 21.5322 33.8169 21.0458C37.3243 20.1004 40.848 19.3026 44.3827 18.6359L49.6819 17.6249C51.4519 17.3189 53.2329 17.0511 55.0083 16.7614L57.6716 16.3406L60.3457 15.9909C62.132 15.7669 63.9075 15.51 65.6994 15.3133C94.2868 12.0891 123.397 13.7012 151.467 19.9693C153.112 20.3518 154.768 20.6798 156.402 21.1115L161.309 22.3683C164.587 23.1989 167.937 24.2756 171.101 25.7511C174.271 27.2265 177.31 29.1282 179.94 31.5655L180.441 32.0136C180.605 32.1667 180.752 32.336 180.91 32.5L181.83 33.4836C182.151 33.8006 182.413 34.1667 182.696 34.5164L183.529 35.5767C184.036 36.3199 184.531 37.074 185 37.8445L185.637 39.0358C185.844 39.4347 186.073 39.8227 186.236 40.2435C186.971 41.8829 187.57 43.577 188.001 45.3093C188.447 47.0526 188.725 48.7576 188.927 50.5719C189.232 54.277 188.556 57.8838 187.456 61.2392C186.345 64.6054 184.798 67.764 183.001 70.7423C181.198 73.7206 179.134 76.5241 176.841 79.1308C174.543 81.7375 172.027 84.1638 169.184 86.2732C167.773 87.2733 166.374 88.2131 164.963 89.1804L163.906 89.9018L163.378 90.2624L162.834 90.5958L160.65 91.9292C159.19 92.8145 157.752 93.7325 156.227 94.5085C154.713 95.3009 153.232 96.148 151.696 96.9022L147.045 99.0607C145.482 99.7493 143.87 100.334 142.285 100.979C135.885 103.389 129.252 105.181 122.52 106.351L117.455 107.11L112.363 107.608C111.513 107.706 110.664 107.739 109.814 107.777L107.26 107.897C106.41 107.925 105.555 108.001 104.706 107.99H102.151C99.2102 108.045 96.2802 107.859 93.3501 107.739C91.885 107.662 90.4309 107.509 88.9713 107.394L86.7819 107.209C86.0521 107.149 85.3277 107.039 84.6033 106.963L80.2463 106.438C78.7976 106.241 77.3598 106.001 75.9111 105.782C73.0355 105.367 70.0999 104.826 67.2352 104.143C61.4839 102.782 55.8471 100.908 50.4498 98.4486C45.058 95.9895 39.8895 92.9401 35.2493 89.153C30.6145 85.3769 26.508 80.8303 23.4962 75.5568C20.4844 70.2997 18.6055 64.3595 18.2025 58.2826C17.7831 52.2113 18.8233 46.1018 20.931 40.4786C23.0387 34.8389 26.1649 29.6474 29.9446 25.0406C33.4956 20.6961 37.9996 16.3844 43.2063 12.8049C45.8041 11.0125 48.5708 9.38947 51.441 8.01781C52.1545 7.67353 52.8897 7.36215 53.6086 7.03426C54.3384 6.72277 55.0791 6.44401 55.8089 6.14891C57.2849 5.62429 58.7554 5.14887 60.2095 4.66251C61.424 4.30184 62.7529 3.97397 64.1526 3.59144C64.8497 3.38924 65.5795 3.24161 66.3202 3.09406C67.0664 2.94105 67.8234 2.78264 68.5968 2.62417C69.3647 2.44929 70.1599 2.33453 70.9604 2.21431C71.7611 2.09409 72.5725 1.9739 73.3895 1.84821C74.2064 1.70613 75.0343 1.65694 75.8675 1.56404C76.7008 1.48206 77.5341 1.39999 78.3674 1.31802C85.0499 0.771539 91.7325 1.00651 96.6668 1.44369C100.926 1.83169 105.326 2.36179 109.455 2.96291C110.048 3.04488 110.631 3.12149 111.197 3.20346C111.764 3.29636 112.314 3.38379 112.848 3.46576C113.921 3.64063 114.939 3.81 115.908 3.96848C117.831 4.32915 119.547 4.64614 121.044 4.9631C122.542 5.28552 123.833 5.58054 124.917 5.84285C126 6.12155 126.877 6.36752 127.558 6.58065C130.287 7.44408 129.851 7.82664 126.594 7.83757C125.162 7.85943 126.654 8.55345 122.117 7.84304C121.932 7.81571 121.556 7.75549 121.382 7.72816C114.487 6.77183 107.548 5.70076 100.528 5.01767C93.5135 4.32364 86.4006 3.98485 79.315 4.49854C78.2312 4.58051 77.1474 4.71171 76.0636 4.81554L74.4406 4.98498L72.8285 5.23087C71.7556 5.40574 70.6718 5.53141 69.6098 5.75546L66.4237 6.42215C65.89 6.52051 65.3671 6.66257 64.8443 6.81012L63.2758 7.23092L61.7072 7.65172C61.1844 7.7938 60.6779 7.99049 60.1605 8.15443L57.0834 9.19281C56.0867 9.59174 55.0737 9.96335 54.0988 10.4224C46.229 13.9198 39.127 19.2097 33.4738 25.7346C27.8423 32.2486 23.6052 40.085 22.0475 48.5008C21.6608 50.5992 21.4212 52.7251 21.4103 54.8509L21.394 55.6487C21.394 55.9165 21.4103 56.1788 21.4212 56.4466C21.4484 56.9766 21.4484 57.5121 21.492 58.0368C21.5955 59.0915 21.6826 60.1516 21.8787 61.2009C22.0148 62.2556 22.298 63.2829 22.5159 64.3212C22.81 65.3431 23.0823 66.376 23.4527 67.3706C24.1607 69.3762 25.0103 71.338 26.056 73.1905C27.0962 75.0485 28.2672 76.841 29.5743 78.5296C30.8977 80.2073 32.3355 81.803 33.8659 83.3003C36.954 86.2786 40.4232 88.8853 44.1212 91.1204C51.5282 95.5906 59.7738 98.6836 68.2428 100.645C70.3614 101.143 72.4909 101.547 74.653 101.886C76.8261 102.203 78.9883 102.569 81.1668 102.848L84.4345 103.236C85.5238 103.356 86.613 103.52 87.7023 103.591L90.9755 103.859C92.0647 103.952 93.1594 104.05 94.2541 104.077C102.99 104.547 111.764 104.258 120.374 102.924L122.357 102.629C123.021 102.536 123.669 102.372 124.323 102.247L128.25 101.438C129.546 101.116 130.831 100.755 132.127 100.416L134.066 99.9023L135.973 99.2793C137.242 98.8585 138.516 98.4542 139.779 98.0225L143.51 96.5524C144.131 96.301 144.757 96.077 145.367 95.8037L147.186 94.9622C148.395 94.3938 149.621 93.8528 150.825 93.268L154.37 91.3772C154.958 91.0603 155.552 90.7543 156.14 90.4264L157.856 89.3827L161.292 87.3006C162.409 86.5628 163.509 85.7924 164.62 85.0437C165.72 84.2841 166.869 83.5462 167.871 82.7538C168.901 81.9614 169.886 81.0926 170.845 80.1964C172.762 78.3985 174.538 76.4312 176.171 74.36C179.428 70.2068 182.179 65.6055 183.916 60.6982C184.777 58.2499 185.354 55.7198 185.474 53.2115C185.506 52.583 185.495 51.9599 185.474 51.3424L185.397 50.4189C185.359 50.1074 185.299 49.7795 185.256 49.4626C185.147 48.8232 185.082 48.1784 184.934 47.5499L184.493 45.6701C183.802 43.2 182.789 40.8447 181.416 38.7134C180.049 36.5822 178.334 34.6859 176.368 33.0683C174.396 31.4453 172.163 30.1338 169.821 29.0244C167.474 27.926 165.012 27.0133 162.474 26.3248C161.091 25.9204 159.631 25.5925 158.21 25.2263C156.777 24.8766 155.356 24.4941 153.918 24.1717C152.475 23.8602 151.037 23.5432 149.594 23.2317L147.431 22.7617L145.253 22.3464C143.799 22.0732 142.345 21.7946 140.891 21.5213C139.436 21.2317 137.966 21.0349 136.506 20.7835C135.041 20.5486 133.576 20.2862 132.106 20.0676C130.63 19.86 129.154 19.6524 127.672 19.4447L127.874 19.4721C115.5 17.86 103.012 17.2806 90.5452 17.4664C87.5988 17.4609 84.6469 17.6467 81.6842 17.7506C80.2028 17.7888 78.7268 17.9309 77.2454 18.0238C75.7641 18.1276 74.2827 18.237 72.8013 18.3408C66.8812 18.9091 60.9393 19.5595 55.041 20.5322L50.6132 21.2481L46.2072 22.0896C43.2607 22.6306 40.3361 23.2537 37.4605 23.9641C34.5794 24.6745 31.7419 25.4887 28.9915 26.4832C26.2357 27.4669 23.5725 28.6418 21.0563 30.0408C18.5238 31.4289 16.1928 33.0738 14.096 34.97C11.9828 36.8554 10.1583 39.0413 8.64425 41.3857C7.1193 43.73 6.01915 46.304 5.34382 48.9435C4.68482 51.5939 4.57589 54.3262 4.95713 56.993C5.32748 59.6653 6.28602 62.2556 7.57679 64.6492C8.87844 67.0482 10.5287 69.2669 12.4512 71.2233C14.3683 73.1797 16.5305 74.8955 18.8397 76.3327C21.1543 77.7645 23.6324 78.9286 26.2139 79.8467C27.8151 80.4423 30.0808 81.0543 32.5861 81.6499Z" stroke="#68B97C" stroke-width="2" mask="url(#path-1-outside-1_30_549)"/>
</svg>
