<svg width="217" height="11" viewBox="0 0 217 11" fill="none" xmlns="http://www.w3.org/2000/svg">
<path d="M29.8091 5.06161C44.539 5.13897 77.99 5.31948 116.117 5.52209C135.182 5.61787 155.416 5.7247 175.067 5.90889C184.892 5.99731 194.569 6.10782 203.886 6.24781C206.216 6.28833 208.521 6.32885 210.806 6.39516C211.379 6.41358 211.951 6.43568 212.52 6.4541L213.387 6.49831C213.538 6.50936 213.673 6.51673 213.865 6.54252L213.953 6.55725C214 6.57199 213.997 6.55357 214.176 6.62356C214.949 6.26623 214.154 11.1289 214.052 9.27225C214.006 9.2833 213.945 9.29803 213.923 9.30172C213.805 9.32014 213.73 9.32751 213.651 9.33487C213.046 9.37908 212.493 9.3975 211.926 9.41592C211.365 9.43065 210.804 9.44539 210.245 9.45644C205.789 9.54485 201.462 9.57064 197.279 9.58906C158.579 9.53749 119.877 9.48591 81.1835 9.43434L52.1639 9.38276C47.3254 9.38276 42.4925 9.33487 37.6678 9.40855C32.8404 9.47854 28.0074 9.60011 23.1827 9.7843L19.5711 9.94639L18.6771 10.0016L18.2397 10.0348L18.0692 10.0532L17.9894 10.0569C17.7171 8.40654 17.8189 8.87808 17.9207 7.38243L18.0885 7.3898L18.303 7.39348H18.7459L19.6453 7.38612L26.8934 7.27192C31.7291 7.19456 36.5703 7.12825 41.4142 7.14298C51.0856 7.19456 60.7542 7.24245 70.4229 7.29402C109.1 7.51505 147.766 7.7324 186.411 7.95343L193.659 8.03816C196.077 8.07131 198.486 8.075 200.915 8.15973L201.828 8.19656C202.142 8.2113 202.425 8.22235 202.791 8.26287C202.876 8.28498 202.819 8.24445 203.105 8.34023C203.154 13.1292 202.766 9.77325 202.824 10.8121C202.714 10.8268 202.637 10.8305 202.554 10.8379L202.084 10.8637C201.773 10.8821 201.476 10.871 201.174 10.8784L190.295 10.9337C185.462 10.9484 180.623 11.0037 175.793 10.9889L161.308 10.9631C141.996 10.9226 122.689 10.8821 103.39 10.8416C91.3253 10.8047 75.0358 10.7532 61.8655 10.7126C58.5729 10.6868 55.4757 10.6611 52.6893 10.639C51.2947 10.6205 49.9798 10.6021 48.7558 10.5874C47.5345 10.5837 46.4039 10.5837 45.3807 10.58C45.1276 10.5837 44.8801 10.5874 44.638 10.5911C44.5197 10.5947 44.4042 10.5984 44.2914 10.6021L44.1401 10.6132C44.1346 10.6132 44.1181 10.6169 44.1236 10.6132L44.0659 10.1969C44.0576 10.1416 44.0439 10.0827 44.0274 10.0311C44.0356 10.0016 44.0053 9.96481 44.0053 9.96481C44.0411 9.92429 44.0906 9.57064 44.1181 9.31277L44.1374 9.31645C44.3189 9.34592 44.5582 9.36434 44.7618 9.38276C44.9736 9.3975 45.1799 9.41592 45.3779 9.43065C46.1756 9.48959 46.8523 9.54117 47.3969 9.58169C48.4862 9.67379 49.0363 9.76957 48.9318 9.87271C48.8245 9.97955 48.3019 10.079 47.3859 10.1637C46.9266 10.2079 46.3709 10.2448 45.719 10.2743C45.3917 10.289 45.0424 10.3037 44.6683 10.3074C44.4785 10.3074 44.2914 10.3111 44.0769 10.3C44.0494 10.2964 44.0219 10.2964 43.9806 10.289C43.9668 10.2853 43.9613 10.2853 43.9366 10.2779C43.9146 10.2706 43.8926 10.2558 43.8733 10.2411C43.8211 10.4253 43.7083 9.58906 43.8211 9.7401C43.8486 9.68852 43.9366 9.64432 43.9256 9.65168L43.9503 9.64063L43.9861 9.62958C44.0576 9.61116 44.1044 9.60379 44.1594 9.59643C44.2639 9.58169 44.3684 9.57064 44.4757 9.5559C47.8398 9.21699 52.6617 9.12858 58.782 8.97386C71.0198 8.67178 88.4041 8.60179 109.447 8.62389C122.18 8.64231 134.924 8.66073 147.67 8.68283C154.043 8.69388 160.42 8.70493 166.793 8.7123C173.169 8.72335 179.548 8.74546 185.916 8.69388L201.443 8.61284C201.839 8.61652 202.249 8.59442 202.601 8.56863L202.653 8.56126C202.64 8.27761 202.689 8.95912 202.78 9.43065C202.874 9.41223 202.659 10.149 202.659 10.5211L202.618 10.5137L202.351 10.4916L201.768 10.4584L200.582 10.4142C198.995 10.3627 197.4 10.3442 195.807 10.3295L181.462 10.1748C168.707 10.1011 155.955 10.0274 143.206 9.95376C117.707 9.81746 92.2247 9.68484 66.7837 9.54854C60.4242 9.51907 54.0646 9.4896 47.7105 9.46012C44.5335 9.45276 41.3537 9.4196 38.1849 9.43434C35.0106 9.44907 31.8391 9.49328 28.6648 9.54485C25.4878 9.59643 22.3135 9.648 19.1392 9.69957C18.7376 9.69957 18.3498 9.70694 17.9234 9.69221L17.8354 9.68852C17.7969 9.68484 17.7804 9.68484 17.6951 9.6701C17.2055 9.91692 17.8684 6.23307 17.7199 7.78029L17.8079 7.76924C17.9207 7.7545 18.0582 7.73608 18.1517 7.72871L18.7569 7.68451L21.1445 7.55926L25.9059 7.37138C32.2517 7.15772 38.5948 7.01773 44.9378 7.02878C82.006 7.05457 119.058 7.08036 156.101 7.10246C165.363 7.10983 174.621 7.1172 183.88 7.12456L197.766 7.12088C202.392 7.09509 207.024 7.06931 211.637 6.95142C212.212 6.933 212.792 6.91827 213.348 6.88143L213.549 6.86669L213.64 6.85564C213.673 6.91827 213.681 6.70092 213.706 6.99563C213.871 8.16709 213.906 7.66977 213.719 8.74546C213.664 9.23541 213.681 8.87808 213.642 8.98122L213.453 8.9628C213.18 8.9407 212.892 8.92597 212.608 8.91492C211.461 8.86702 210.306 8.83755 209.151 8.80808L202.213 8.67915L188.331 8.50601L160.563 8.25551C123.536 8.06395 86.5143 7.87239 49.493 7.68083L26.9319 7.53715C26.357 7.53347 25.7904 7.53716 25.2182 7.55557C24.0739 7.58504 22.9269 7.65135 21.7744 7.72503C20.6163 7.79502 19.4831 7.90186 18.2618 7.91659C18.0995 7.91291 17.9454 7.91291 17.7886 7.89817C17.7061 7.8908 17.6291 7.88712 17.5081 7.8687C17.8987 7.28665 16.5398 9.31277 17.2468 5.68786C17.4613 5.59208 17.4586 5.61419 17.5273 5.59208C17.7199 5.55524 17.8602 5.53683 18.0169 5.51841L18.4626 5.47052C19.0512 5.41526 19.6316 5.37474 20.212 5.33421C22.5363 5.18318 24.8524 5.0874 27.1712 5.0174C29.49 4.94741 31.8171 4.92162 34.1277 4.93636L41.0704 4.94373C59.5824 4.95846 78.0945 4.9732 96.6093 4.99162C113.234 5.00635 129.86 5.0174 146.485 5.03214L171.425 5.05424C179.738 5.06529 188.05 5.07266 196.363 5.02109C200.519 4.99898 204.675 4.96951 208.826 4.9032L211.934 4.83689L213.48 4.78164C213.725 4.76322 213.992 4.75217 214.22 4.73375L214.289 4.72638C214.286 4.42799 214.311 4.96583 214.44 5.68049C214.578 5.6105 214.267 6.71197 214.3 6.92564L214.245 6.91827C214.143 6.90353 214.014 6.89617 213.89 6.88511C211.852 6.76723 209.758 6.73408 207.687 6.6825C205.61 6.63461 203.534 6.60146 201.454 6.59409L120.405 5.9752L33.1182 5.74312C28.9564 5.73575 24.8139 5.69523 20.6631 5.79101L14.4328 5.93836C12.3505 5.98257 10.2793 6.05256 8.16676 6.01573C7.89995 6.00836 7.63588 6.00467 7.36632 5.98625C7.23153 5.97889 7.094 5.96783 6.94821 5.9531C6.87395 5.94573 6.80243 5.93836 6.71166 5.91995C6.67039 5.91258 6.61813 5.90153 6.55762 5.88679C6.40633 5.76522 6.59888 6.08203 5.99648 5.48525C6.05974 2.23241 6.51911 4.16643 6.46409 3.55123C6.53836 3.52176 6.58237 3.51071 6.63189 3.49597C6.71991 3.47387 6.79693 3.45545 6.86844 3.4444C7.01698 3.41861 7.15176 3.39651 7.2893 3.37809C7.55886 3.34125 7.82568 3.31178 8.08975 3.28599C9.14326 3.17916 10.1858 3.10917 11.231 3.05023C13.3188 2.93234 15.401 2.86235 17.4861 2.82183C19.5738 2.77762 21.6478 2.79236 23.7274 2.78499L79.8384 2.74815C108.377 2.7592 136.915 2.77025 165.448 2.77762C179.716 2.77025 193.983 2.82183 208.243 2.69658L213.585 2.61922C214.47 2.6008 215.364 2.57501 216.225 2.52712C216.322 2.51975 216.448 2.5087 216.481 2.50133C216.514 3.32652 216.737 3.75753 216.619 3.86436C216.533 4.3101 216.445 5.27896 216.467 4.94004L216.341 4.92531C216.14 4.90689 215.92 4.89584 215.703 4.88478L214.38 4.83321C210.829 4.72638 207.258 4.72638 203.693 4.68954L192.999 4.60113L182.298 4.57166C125.236 4.27695 68.1756 4.60113 11.1182 4.68586L11.0852 1.91929C16.4546 1.643 21.8486 1.37039 27.2372 1.21935C29.9329 1.14199 32.6285 1.09042 35.327 1.072L43.4002 1.05726C70.3514 1.00201 97.2915 1.06095 124.234 1.09042L184.854 1.17883L206.293 1.06463C206.502 1.06095 206.716 1.06463 206.92 1.05358L207.22 1.03885L207.354 1.02779L207.401 1.02043C207.382 0.954117 207.566 2.47186 207.561 2.27662C207.495 2.36871 207.368 3.87909 207.396 3.48861L207.346 3.48124L207.209 3.47019L206.909 3.45177L206.287 3.42598L205.033 3.38546L199.991 3.28231C196.627 3.22705 193.26 3.19021 189.89 3.18653L169.684 3.10548C156.211 3.05391 142.741 3.00234 129.268 2.94708L109.059 2.86972C102.322 2.8513 95.5888 2.87709 88.8497 2.91024C75.3741 3.00602 61.8985 3.1018 48.4229 3.19758C35.7313 3.27863 21.7441 3.37072 7.44884 3.26757C5.6609 3.25284 3.8702 3.2381 2.06851 3.1939C1.60915 3.17916 1.18004 3.17548 0.676667 3.13496L0.558388 3.12022C0.533632 3.11654 0.508875 3.11285 0.44561 3.09812C0.335583 3.0097 0.522629 3.25652 0 2.79604C0.0357588 -0.666777 0.32458 1.55827 0.225556 0.891491C0.305325 0.850969 0.387846 0.817815 0.473117 0.792028C0.514377 0.780976 0.558388 0.769924 0.599648 0.758873C0.640908 0.751505 0.693171 0.740454 0.695922 0.744137L1.05351 0.707299L1.74118 0.652041L4.44785 0.489952C8.04848 0.305759 11.6491 0.173141 15.2443 0.0884124C17.0405 0.04789 18.8339 0.0147354 20.6246 0.0073677C22.4098 0.00368385 24.1895 0.00368385 25.9637 0C29.512 0 33.0329 0 36.5098 0C59.5192 0.0294708 97.8856 0.0773608 120.689 0.103148C130.531 0.136302 140.747 0.176825 150.382 0.147354C194.666 0.0147354 206.367 0.316811 191.552 1.26724C188.292 1.47722 192.052 1.74983 181.347 1.8935C180.904 1.90087 180.021 1.91192 179.617 1.91929C147.159 2.49028 113.851 2.21768 80.3033 2.22504C60.1738 2.23241 40.0444 2.2361 19.9149 2.24346C14.8922 2.2803 9.86393 2.43871 4.84395 2.67447C3.59514 2.74078 2.32432 2.79973 1.10302 2.90656L0.882968 2.92866C0.816952 2.93603 0.858212 2.93603 0.89397 2.91761C1.07827 3.21968 0.786694 2.61185 0.640908 1.7793C0.803198 0.434694 0.726179 1.11252 0.786694 0.943065L0.888469 0.950433L1.11127 0.965168L2.041 0.998323L3.92247 1.03885L11.4648 1.11621C21.5268 1.17883 31.5915 1.16778 41.6535 1.10884C61.7802 0.994639 81.9125 0.725718 102.05 0.67046L192.655 0.88044C195.172 0.887808 197.689 0.924646 200.208 0.957801L203.988 1.02411L205.88 1.072L206.832 1.10884L207.319 1.13831C207.407 1.14568 207.481 1.14936 207.605 1.16778C207.748 -0.666777 207.943 3.79436 207.638 3.33757C207.561 3.3523 207.517 3.35599 207.47 3.35967C207.118 3.38914 206.81 3.40388 206.493 3.40388L184.763 3.54755L41.3152 3.55123C38.8011 3.5586 36.2787 3.54755 33.7701 3.57702C31.2587 3.60649 28.7446 3.66543 26.2332 3.74279C21.205 3.89751 16.1877 4.15538 11.1513 4.41325L11.1237 2.20294L21.9917 2.18084C47.2539 2.12926 72.5244 2.08137 97.7949 2.0298L126.223 1.98191L135.699 2.01507C148.333 2.05927 160.97 2.10348 173.601 2.14768L192.55 2.21031C198.869 2.26925 205.187 2.32819 211.502 2.38345C213.09 2.4166 214.652 2.43871 216.269 2.53449L216.597 2.56396L216.698 2.57869C216.764 2.6008 216.718 2.55291 216.996 2.67816C217.045 6.84459 216.665 3.97119 216.726 4.86268L216.616 4.87742C216.377 4.9032 216.187 4.91057 215.983 4.92162C215.579 4.94372 215.18 4.95846 214.784 4.96951L212.407 5.02477C209.244 5.07634 206.089 5.09845 202.931 5.11687C196.616 5.12792 190.303 5.13897 183.99 5.1537C158.744 5.15002 133.51 5.14634 108.297 5.14265C80.6856 5.16844 53.0606 5.19054 25.0339 5.21633H25.5125L20.0304 5.23107C18.2067 5.23843 16.3858 5.27896 14.5676 5.34526C12.7494 5.41157 10.9284 5.49999 9.124 5.64734C8.67289 5.68418 8.22453 5.72838 7.78442 5.77996C7.56712 5.80575 7.34431 5.83522 7.14901 5.87205L7.01698 5.89784L6.97572 5.90889H6.96747C6.97847 5.9531 6.95647 5.82785 6.93446 5.70628C6.91245 5.59208 6.8877 5.48157 6.86019 5.36737C6.82718 5.24212 6.82443 5.18686 6.79968 5.09845C6.78042 5.02109 6.74741 4.92899 6.72816 4.87005C6.71716 4.81847 6.69515 4.77058 6.66764 4.73006C6.66489 4.70059 6.63189 4.71164 6.65664 4.70059C6.65389 4.69322 6.7034 4.63428 6.70615 4.59376C6.70615 4.56061 6.75016 4.45377 6.76392 4.38746C6.78592 4.30274 6.78867 4.24379 6.81068 4.13696C6.85744 3.9233 6.8932 3.68017 6.91521 3.48124L7.00598 3.49597C7.38007 3.54386 7.85319 3.55491 8.29329 3.56597C8.7389 3.57333 9.19277 3.57702 9.64388 3.57333C13.2748 3.53649 16.9414 3.39651 20.5998 3.32652C22.4318 3.28968 24.2637 3.26021 26.0957 3.25652L31.586 3.26389C46.2114 3.29336 60.834 3.32283 75.4539 3.3523C89.2843 3.38914 103.192 3.42598 117.146 3.46282C131.103 3.56228 145.109 3.66175 159.138 3.76489C173.166 3.86804 187.214 3.97487 201.253 4.07802C204.763 4.08907 208.273 4.1738 211.791 4.27326L213.114 4.32484L213.783 4.35799L214.127 4.3801C214.248 4.39115 214.355 4.39852 214.514 4.42062C214.567 4.43167 214.586 4.42799 214.729 4.47219C215.48 4.1959 214.473 9.33487 214.627 7.20929C214.49 7.23876 214.446 7.23876 214.371 7.24981C214.239 7.26455 214.132 7.26823 214.017 7.2756C213.788 7.29034 213.557 7.30507 213.337 7.31244L212.009 7.35665C210.245 7.40454 208.49 7.43032 206.735 7.45611C199.716 7.54084 192.71 7.56663 185.709 7.58136C157.716 7.55557 129.862 7.52979 102.369 7.50768C88.6241 7.48926 74.9697 7.47453 61.4337 7.45611C54.667 7.44506 47.9278 7.43769 41.2217 7.42664C37.8713 7.42296 34.5265 7.41927 31.1927 7.41559C27.8726 7.44874 24.5526 7.55557 21.2545 7.74345C20.7374 7.77661 20.1955 7.81344 19.6343 7.85028C19.0815 7.89449 18.4791 7.93869 17.9372 8.01606L17.8492 8.03079L17.8161 8.03816L17.8079 8.04184L17.7969 7.96816L17.7501 7.65135C17.6869 7.24245 17.6153 6.90722 17.5658 6.78197C17.5521 6.74513 17.5356 6.74513 17.5466 6.74144C17.5548 6.73408 17.5713 6.68987 17.5796 6.64935C17.5961 6.59041 17.6043 6.5462 17.6181 6.47621C17.6319 6.40253 17.6456 6.32885 17.6539 6.25149C17.6841 6.05993 17.6979 5.89784 17.7281 5.66208L17.7446 5.4963L17.7501 5.42999H17.7529L17.7804 5.43368C17.8822 5.44473 18.0472 5.4521 18.1765 5.4521C18.4488 5.45946 18.7624 5.44473 19.0732 5.42999C19.7114 5.38947 20.366 5.34526 21.0344 5.30106C22.385 5.20528 23.8071 5.1095 25.287 5.06898C26.7751 5.02109 28.2715 5.05792 29.8091 5.06161Z" fill="#68B97C"/>
</svg>
